<mxfile host="app.diagrams.net" agent="Mozilla/5.0 (Windows NT 10.0; Win64; x64) AppleWebKit/537.36 (KHTML, like Gecko) Chrome/136.0.0.0 Safari/537.36 Edg/136.0.0.0" version="27.0.3">
  <diagram name="Page-1" id="L1o15HxbGhxSWDabJQY2">
    <mxGraphModel dx="2026" dy="1134" grid="1" gridSize="10" guides="1" tooltips="1" connect="1" arrows="1" fold="1" page="1" pageScale="1" pageWidth="850" pageHeight="1100" math="0" shadow="0">
      <root>
        <mxCell id="0" />
        <mxCell id="1" parent="0" />
        <mxCell id="uTiXBYOYS6c3BIyxJnIv-1" value="Người Dùng&amp;nbsp;" style="swimlane;startSize=20;whiteSpace=wrap;html=1;fontStyle=1" parent="1" vertex="1">
          <mxGeometry x="60" y="150" width="390" height="1180" as="geometry" />
        </mxCell>
        <mxCell id="uTiXBYOYS6c3BIyxJnIv-2" value="" style="ellipse;html=1;shape=startState;fillColor=#000000;strokeColor=#ff0000;fontStyle=1" parent="uTiXBYOYS6c3BIyxJnIv-1" vertex="1">
          <mxGeometry x="170" y="30" width="30" height="30" as="geometry" />
        </mxCell>
        <mxCell id="uTiXBYOYS6c3BIyxJnIv-3" value="" style="edgeStyle=orthogonalEdgeStyle;html=1;verticalAlign=bottom;endArrow=open;endSize=8;strokeColor=#ff0000;rounded=0;fontStyle=1" parent="uTiXBYOYS6c3BIyxJnIv-1" source="uTiXBYOYS6c3BIyxJnIv-2" edge="1">
          <mxGeometry relative="1" as="geometry">
            <mxPoint x="185" y="120" as="targetPoint" />
          </mxGeometry>
        </mxCell>
        <mxCell id="uTiXBYOYS6c3BIyxJnIv-4" value="Truy cập hệ thống" style="rounded=1;whiteSpace=wrap;html=1;fontStyle=1" parent="uTiXBYOYS6c3BIyxJnIv-1" vertex="1">
          <mxGeometry x="125" y="120" width="120" height="60" as="geometry" />
        </mxCell>
        <mxCell id="uTiXBYOYS6c3BIyxJnIv-5" style="edgeStyle=orthogonalEdgeStyle;rounded=0;orthogonalLoop=1;jettySize=auto;html=1;fontStyle=1" parent="uTiXBYOYS6c3BIyxJnIv-1" source="uTiXBYOYS6c3BIyxJnIv-7" target="uTiXBYOYS6c3BIyxJnIv-8" edge="1">
          <mxGeometry relative="1" as="geometry" />
        </mxCell>
        <mxCell id="uTiXBYOYS6c3BIyxJnIv-6" value="Đăng nhập thông thường" style="edgeLabel;html=1;align=center;verticalAlign=middle;resizable=0;points=[];fontStyle=1" parent="uTiXBYOYS6c3BIyxJnIv-5" vertex="1" connectable="0">
          <mxGeometry x="-0.3106" y="-1" relative="1" as="geometry">
            <mxPoint as="offset" />
          </mxGeometry>
        </mxCell>
        <mxCell id="uTiXBYOYS6c3BIyxJnIv-7" value="Chọn phương thức đăng nhập" style="rhombus;whiteSpace=wrap;html=1;fontStyle=1" parent="uTiXBYOYS6c3BIyxJnIv-1" vertex="1">
          <mxGeometry x="145" y="210" width="80" height="80" as="geometry" />
        </mxCell>
        <mxCell id="uTiXBYOYS6c3BIyxJnIv-8" value="Nhập email và mật khẩu" style="rounded=1;whiteSpace=wrap;html=1;fontStyle=1" parent="uTiXBYOYS6c3BIyxJnIv-1" vertex="1">
          <mxGeometry x="125" y="340" width="120" height="60" as="geometry" />
        </mxCell>
        <mxCell id="uTiXBYOYS6c3BIyxJnIv-9" style="edgeStyle=orthogonalEdgeStyle;rounded=0;orthogonalLoop=1;jettySize=auto;html=1;fontStyle=1" parent="uTiXBYOYS6c3BIyxJnIv-1" source="uTiXBYOYS6c3BIyxJnIv-11" target="uTiXBYOYS6c3BIyxJnIv-14" edge="1">
          <mxGeometry relative="1" as="geometry" />
        </mxCell>
        <mxCell id="uTiXBYOYS6c3BIyxJnIv-10" value="Hợp lệ" style="edgeLabel;html=1;align=center;verticalAlign=middle;resizable=0;points=[];fontStyle=1" parent="uTiXBYOYS6c3BIyxJnIv-9" vertex="1" connectable="0">
          <mxGeometry x="-0.3237" y="2" relative="1" as="geometry">
            <mxPoint as="offset" />
          </mxGeometry>
        </mxCell>
        <mxCell id="uTiXBYOYS6c3BIyxJnIv-11" value="Kiểm tra email &amp;amp; mật khẩu" style="rhombus;whiteSpace=wrap;html=1;fontStyle=1" parent="uTiXBYOYS6c3BIyxJnIv-1" vertex="1">
          <mxGeometry x="610" y="330" width="80" height="80" as="geometry" />
        </mxCell>
        <mxCell id="uTiXBYOYS6c3BIyxJnIv-12" style="edgeStyle=orthogonalEdgeStyle;rounded=0;orthogonalLoop=1;jettySize=auto;html=1;fontStyle=1" parent="uTiXBYOYS6c3BIyxJnIv-1" source="uTiXBYOYS6c3BIyxJnIv-14" target="uTiXBYOYS6c3BIyxJnIv-16" edge="1">
          <mxGeometry relative="1" as="geometry" />
        </mxCell>
        <mxCell id="uTiXBYOYS6c3BIyxJnIv-13" value="Chưa tồn tại" style="edgeLabel;html=1;align=center;verticalAlign=middle;resizable=0;points=[];fontStyle=1" parent="uTiXBYOYS6c3BIyxJnIv-12" vertex="1" connectable="0">
          <mxGeometry x="-0.144" y="-1" relative="1" as="geometry">
            <mxPoint as="offset" />
          </mxGeometry>
        </mxCell>
        <mxCell id="uTiXBYOYS6c3BIyxJnIv-14" value="email đã tồn tại" style="rhombus;whiteSpace=wrap;html=1;fontStyle=1" parent="uTiXBYOYS6c3BIyxJnIv-1" vertex="1">
          <mxGeometry x="610" y="470" width="80" height="80" as="geometry" />
        </mxCell>
        <mxCell id="uTiXBYOYS6c3BIyxJnIv-60" style="edgeStyle=orthogonalEdgeStyle;rounded=0;orthogonalLoop=1;jettySize=auto;html=1;entryX=1;entryY=0.5;entryDx=0;entryDy=0;fontStyle=1" parent="uTiXBYOYS6c3BIyxJnIv-1" source="uTiXBYOYS6c3BIyxJnIv-16" target="uTiXBYOYS6c3BIyxJnIv-59" edge="1">
          <mxGeometry relative="1" as="geometry">
            <Array as="points">
              <mxPoint x="650" y="715" />
            </Array>
          </mxGeometry>
        </mxCell>
        <mxCell id="uTiXBYOYS6c3BIyxJnIv-16" value="Gửi mã xác thực email" style="rounded=1;whiteSpace=wrap;html=1;fontStyle=1" parent="uTiXBYOYS6c3BIyxJnIv-1" vertex="1">
          <mxGeometry x="590" y="600" width="120" height="60" as="geometry" />
        </mxCell>
        <mxCell id="uTiXBYOYS6c3BIyxJnIv-67" style="edgeStyle=orthogonalEdgeStyle;rounded=0;orthogonalLoop=1;jettySize=auto;html=1;fontStyle=1" parent="uTiXBYOYS6c3BIyxJnIv-1" source="uTiXBYOYS6c3BIyxJnIv-18" target="uTiXBYOYS6c3BIyxJnIv-66" edge="1">
          <mxGeometry relative="1" as="geometry">
            <Array as="points">
              <mxPoint x="485" y="670" />
              <mxPoint x="110" y="670" />
            </Array>
          </mxGeometry>
        </mxCell>
        <mxCell id="uTiXBYOYS6c3BIyxJnIv-18" value="Chuyển hướng đến GOOGLE" style="rounded=1;whiteSpace=wrap;html=1;fontStyle=1" parent="uTiXBYOYS6c3BIyxJnIv-1" vertex="1">
          <mxGeometry x="425" y="600" width="120" height="60" as="geometry" />
        </mxCell>
        <mxCell id="uTiXBYOYS6c3BIyxJnIv-19" style="edgeStyle=orthogonalEdgeStyle;rounded=0;orthogonalLoop=1;jettySize=auto;html=1;entryX=0;entryY=0.5;entryDx=0;entryDy=0;fontStyle=1" parent="uTiXBYOYS6c3BIyxJnIv-1" source="uTiXBYOYS6c3BIyxJnIv-7" target="uTiXBYOYS6c3BIyxJnIv-18" edge="1">
          <mxGeometry relative="1" as="geometry">
            <mxPoint x="125" y="750" as="targetPoint" />
            <Array as="points">
              <mxPoint x="105" y="250" />
              <mxPoint x="105" y="630" />
            </Array>
          </mxGeometry>
        </mxCell>
        <mxCell id="uTiXBYOYS6c3BIyxJnIv-20" value="Đăng nhập bằng GOOGLE" style="edgeLabel;html=1;align=center;verticalAlign=middle;resizable=0;points=[];fontStyle=1" parent="uTiXBYOYS6c3BIyxJnIv-19" vertex="1" connectable="0">
          <mxGeometry x="-0.3476" y="-3" relative="1" as="geometry">
            <mxPoint as="offset" />
          </mxGeometry>
        </mxCell>
        <mxCell id="uTiXBYOYS6c3BIyxJnIv-21" style="edgeStyle=orthogonalEdgeStyle;rounded=0;orthogonalLoop=1;jettySize=auto;html=1;entryX=0;entryY=0.5;entryDx=0;entryDy=0;fontStyle=1" parent="uTiXBYOYS6c3BIyxJnIv-1" source="uTiXBYOYS6c3BIyxJnIv-8" target="uTiXBYOYS6c3BIyxJnIv-11" edge="1">
          <mxGeometry relative="1" as="geometry" />
        </mxCell>
        <mxCell id="uTiXBYOYS6c3BIyxJnIv-22" style="edgeStyle=orthogonalEdgeStyle;rounded=0;orthogonalLoop=1;jettySize=auto;html=1;entryX=0.824;entryY=0.017;entryDx=0;entryDy=0;entryPerimeter=0;fontStyle=1" parent="uTiXBYOYS6c3BIyxJnIv-1" source="uTiXBYOYS6c3BIyxJnIv-11" target="uTiXBYOYS6c3BIyxJnIv-8" edge="1">
          <mxGeometry relative="1" as="geometry">
            <Array as="points">
              <mxPoint x="650" y="320" />
              <mxPoint x="224" y="320" />
            </Array>
          </mxGeometry>
        </mxCell>
        <mxCell id="uTiXBYOYS6c3BIyxJnIv-23" value="Không hợp lệ" style="edgeLabel;html=1;align=center;verticalAlign=middle;resizable=0;points=[];fontStyle=1" parent="uTiXBYOYS6c3BIyxJnIv-22" vertex="1" connectable="0">
          <mxGeometry x="-0.0955" y="-1" relative="1" as="geometry">
            <mxPoint x="51" as="offset" />
          </mxGeometry>
        </mxCell>
        <mxCell id="uTiXBYOYS6c3BIyxJnIv-24" style="edgeStyle=orthogonalEdgeStyle;rounded=0;orthogonalLoop=1;jettySize=auto;html=1;entryX=0.5;entryY=1;entryDx=0;entryDy=0;fontStyle=1" parent="uTiXBYOYS6c3BIyxJnIv-1" source="uTiXBYOYS6c3BIyxJnIv-14" target="uTiXBYOYS6c3BIyxJnIv-8" edge="1">
          <mxGeometry relative="1" as="geometry" />
        </mxCell>
        <mxCell id="uTiXBYOYS6c3BIyxJnIv-25" value="Đã tồn tại" style="edgeLabel;html=1;align=center;verticalAlign=middle;resizable=0;points=[];fontStyle=1" parent="uTiXBYOYS6c3BIyxJnIv-24" vertex="1" connectable="0">
          <mxGeometry x="-0.5983" y="-2" relative="1" as="geometry">
            <mxPoint x="12" y="2" as="offset" />
          </mxGeometry>
        </mxCell>
        <mxCell id="uTiXBYOYS6c3BIyxJnIv-59" value="Nhập mã xác thực email" style="rounded=1;whiteSpace=wrap;html=1;fontStyle=1" parent="uTiXBYOYS6c3BIyxJnIv-1" vertex="1">
          <mxGeometry x="200" y="685" width="120" height="60" as="geometry" />
        </mxCell>
        <mxCell id="uTiXBYOYS6c3BIyxJnIv-66" value="Xác thực tài khoản GOOGLE" style="rounded=1;whiteSpace=wrap;html=1;fontStyle=1" parent="uTiXBYOYS6c3BIyxJnIv-1" vertex="1">
          <mxGeometry x="50" y="685" width="120" height="60" as="geometry" />
        </mxCell>
        <mxCell id="uTiXBYOYS6c3BIyxJnIv-85" style="edgeStyle=orthogonalEdgeStyle;rounded=0;orthogonalLoop=1;jettySize=auto;html=1;fontStyle=1" parent="uTiXBYOYS6c3BIyxJnIv-1" source="uTiXBYOYS6c3BIyxJnIv-78" target="uTiXBYOYS6c3BIyxJnIv-83" edge="1">
          <mxGeometry relative="1" as="geometry" />
        </mxCell>
        <mxCell id="uTiXBYOYS6c3BIyxJnIv-78" value="Truy cập trang chủ" style="rounded=1;whiteSpace=wrap;html=1;fontStyle=1" parent="uTiXBYOYS6c3BIyxJnIv-1" vertex="1">
          <mxGeometry x="125" y="1020" width="120" height="60" as="geometry" />
        </mxCell>
        <mxCell id="uTiXBYOYS6c3BIyxJnIv-83" value="" style="ellipse;html=1;shape=endState;fillColor=#000000;strokeColor=#ff0000;fontStyle=1" parent="uTiXBYOYS6c3BIyxJnIv-1" vertex="1">
          <mxGeometry x="170" y="1120" width="30" height="30" as="geometry" />
        </mxCell>
        <mxCell id="uTiXBYOYS6c3BIyxJnIv-30" value="Hệ Thống" style="swimlane;startSize=20;whiteSpace=wrap;html=1;fontStyle=1" parent="1" vertex="1">
          <mxGeometry x="450" y="150" width="380" height="1180" as="geometry" />
        </mxCell>
        <mxCell id="uTiXBYOYS6c3BIyxJnIv-31" value="Hiển thị form đăng nhập" style="rounded=1;whiteSpace=wrap;html=1;fontStyle=1" parent="uTiXBYOYS6c3BIyxJnIv-30" vertex="1">
          <mxGeometry x="130" y="120" width="120" height="60" as="geometry" />
        </mxCell>
        <mxCell id="uTiXBYOYS6c3BIyxJnIv-71" style="edgeStyle=orthogonalEdgeStyle;rounded=0;orthogonalLoop=1;jettySize=auto;html=1;fontStyle=1" parent="uTiXBYOYS6c3BIyxJnIv-30" source="uTiXBYOYS6c3BIyxJnIv-61" target="uTiXBYOYS6c3BIyxJnIv-70" edge="1">
          <mxGeometry relative="1" as="geometry" />
        </mxCell>
        <mxCell id="uTiXBYOYS6c3BIyxJnIv-72" value="hợp lệ" style="edgeLabel;html=1;align=center;verticalAlign=middle;resizable=0;points=[];fontStyle=1" parent="uTiXBYOYS6c3BIyxJnIv-71" vertex="1" connectable="0">
          <mxGeometry x="-0.1979" y="-1" relative="1" as="geometry">
            <mxPoint as="offset" />
          </mxGeometry>
        </mxCell>
        <mxCell id="uTiXBYOYS6c3BIyxJnIv-61" value="Kiểm tra mã xác thực" style="rhombus;whiteSpace=wrap;html=1;fontStyle=1" parent="uTiXBYOYS6c3BIyxJnIv-30" vertex="1">
          <mxGeometry x="50" y="760" width="80" height="80" as="geometry" />
        </mxCell>
        <mxCell id="uTiXBYOYS6c3BIyxJnIv-73" style="edgeStyle=orthogonalEdgeStyle;rounded=0;orthogonalLoop=1;jettySize=auto;html=1;entryX=0.75;entryY=0;entryDx=0;entryDy=0;fontStyle=1" parent="uTiXBYOYS6c3BIyxJnIv-30" source="uTiXBYOYS6c3BIyxJnIv-68" target="uTiXBYOYS6c3BIyxJnIv-70" edge="1">
          <mxGeometry relative="1" as="geometry">
            <Array as="points">
              <mxPoint x="250" y="870" />
              <mxPoint x="120" y="870" />
            </Array>
          </mxGeometry>
        </mxCell>
        <mxCell id="uTiXBYOYS6c3BIyxJnIv-74" value="tồn tại" style="edgeLabel;html=1;align=center;verticalAlign=middle;resizable=0;points=[];fontStyle=1" parent="uTiXBYOYS6c3BIyxJnIv-73" vertex="1" connectable="0">
          <mxGeometry x="0.0687" y="-2" relative="1" as="geometry">
            <mxPoint as="offset" />
          </mxGeometry>
        </mxCell>
        <mxCell id="uTiXBYOYS6c3BIyxJnIv-86" style="edgeStyle=orthogonalEdgeStyle;rounded=0;orthogonalLoop=1;jettySize=auto;html=1;entryX=0.549;entryY=0.028;entryDx=0;entryDy=0;entryPerimeter=0;fontStyle=1" parent="uTiXBYOYS6c3BIyxJnIv-30" source="uTiXBYOYS6c3BIyxJnIv-68" target="uTiXBYOYS6c3BIyxJnIv-75" edge="1">
          <mxGeometry relative="1" as="geometry">
            <Array as="points">
              <mxPoint x="296" y="800" />
            </Array>
          </mxGeometry>
        </mxCell>
        <mxCell id="uTiXBYOYS6c3BIyxJnIv-87" value="không tồn tại" style="edgeLabel;html=1;align=center;verticalAlign=middle;resizable=0;points=[];fontStyle=1" parent="uTiXBYOYS6c3BIyxJnIv-86" vertex="1" connectable="0">
          <mxGeometry x="0.1772" y="2" relative="1" as="geometry">
            <mxPoint as="offset" />
          </mxGeometry>
        </mxCell>
        <mxCell id="uTiXBYOYS6c3BIyxJnIv-68" value="Kiểm tra tài khoản có tồn tại" style="rhombus;whiteSpace=wrap;html=1;fontStyle=1" parent="uTiXBYOYS6c3BIyxJnIv-30" vertex="1">
          <mxGeometry x="210" y="760" width="80" height="80" as="geometry" />
        </mxCell>
        <mxCell id="uTiXBYOYS6c3BIyxJnIv-70" value="Tạo phiên đăng nhập" style="rounded=1;whiteSpace=wrap;html=1;fontStyle=1" parent="uTiXBYOYS6c3BIyxJnIv-30" vertex="1">
          <mxGeometry x="30" y="900" width="120" height="60" as="geometry" />
        </mxCell>
        <mxCell id="uTiXBYOYS6c3BIyxJnIv-75" value="Thông báo đăng ký tài khoản" style="rounded=1;whiteSpace=wrap;html=1;fontStyle=1" parent="uTiXBYOYS6c3BIyxJnIv-30" vertex="1">
          <mxGeometry x="230" y="950" width="120" height="60" as="geometry" />
        </mxCell>
        <mxCell id="uTiXBYOYS6c3BIyxJnIv-45" style="edgeStyle=orthogonalEdgeStyle;rounded=0;orthogonalLoop=1;jettySize=auto;html=1;entryX=0;entryY=0.5;entryDx=0;entryDy=0;fontStyle=1" parent="1" source="uTiXBYOYS6c3BIyxJnIv-4" target="uTiXBYOYS6c3BIyxJnIv-31" edge="1">
          <mxGeometry relative="1" as="geometry" />
        </mxCell>
        <mxCell id="uTiXBYOYS6c3BIyxJnIv-46" style="edgeStyle=orthogonalEdgeStyle;rounded=0;orthogonalLoop=1;jettySize=auto;html=1;entryX=1;entryY=0.5;entryDx=0;entryDy=0;fontStyle=1" parent="1" source="uTiXBYOYS6c3BIyxJnIv-31" target="uTiXBYOYS6c3BIyxJnIv-7" edge="1">
          <mxGeometry relative="1" as="geometry">
            <mxPoint x="305" y="400" as="targetPoint" />
            <Array as="points">
              <mxPoint x="640" y="400" />
            </Array>
          </mxGeometry>
        </mxCell>
        <mxCell id="uTiXBYOYS6c3BIyxJnIv-57" value="&lt;font style=&quot;font-size: 24px;&quot;&gt;Đăng nhập tài khoản&lt;/font&gt;" style="text;html=1;align=center;verticalAlign=middle;whiteSpace=wrap;rounded=0;fontStyle=1" parent="1" vertex="1">
          <mxGeometry x="190" y="100" width="540" height="30" as="geometry" />
        </mxCell>
        <mxCell id="uTiXBYOYS6c3BIyxJnIv-62" style="edgeStyle=orthogonalEdgeStyle;rounded=0;orthogonalLoop=1;jettySize=auto;html=1;entryX=0;entryY=0.5;entryDx=0;entryDy=0;fontStyle=1" parent="1" source="uTiXBYOYS6c3BIyxJnIv-59" target="uTiXBYOYS6c3BIyxJnIv-61" edge="1">
          <mxGeometry relative="1" as="geometry">
            <Array as="points">
              <mxPoint x="320" y="950" />
            </Array>
          </mxGeometry>
        </mxCell>
        <mxCell id="uTiXBYOYS6c3BIyxJnIv-64" style="edgeStyle=orthogonalEdgeStyle;rounded=0;orthogonalLoop=1;jettySize=auto;html=1;entryX=1;entryY=0.75;entryDx=0;entryDy=0;fontStyle=1" parent="1" source="uTiXBYOYS6c3BIyxJnIv-61" target="uTiXBYOYS6c3BIyxJnIv-59" edge="1">
          <mxGeometry relative="1" as="geometry">
            <Array as="points">
              <mxPoint x="540" y="880" />
            </Array>
          </mxGeometry>
        </mxCell>
        <mxCell id="uTiXBYOYS6c3BIyxJnIv-65" value="không hợp lệ" style="edgeLabel;html=1;align=center;verticalAlign=middle;resizable=0;points=[];fontStyle=1" parent="uTiXBYOYS6c3BIyxJnIv-64" vertex="1" connectable="0">
          <mxGeometry x="0.3181" y="-3" relative="1" as="geometry">
            <mxPoint x="41" y="3" as="offset" />
          </mxGeometry>
        </mxCell>
        <mxCell id="uTiXBYOYS6c3BIyxJnIv-69" style="edgeStyle=orthogonalEdgeStyle;rounded=0;orthogonalLoop=1;jettySize=auto;html=1;entryX=0;entryY=0.5;entryDx=0;entryDy=0;fontStyle=1" parent="1" source="uTiXBYOYS6c3BIyxJnIv-66" target="uTiXBYOYS6c3BIyxJnIv-68" edge="1">
          <mxGeometry relative="1" as="geometry">
            <Array as="points">
              <mxPoint x="170" y="1000" />
              <mxPoint x="640" y="1000" />
              <mxPoint x="640" y="950" />
            </Array>
          </mxGeometry>
        </mxCell>
        <mxCell id="uTiXBYOYS6c3BIyxJnIv-89" style="edgeStyle=orthogonalEdgeStyle;rounded=0;orthogonalLoop=1;jettySize=auto;html=1;entryX=0.451;entryY=0.001;entryDx=0;entryDy=0;entryPerimeter=0;fontStyle=1" parent="1" source="uTiXBYOYS6c3BIyxJnIv-70" target="uTiXBYOYS6c3BIyxJnIv-78" edge="1">
          <mxGeometry relative="1" as="geometry" />
        </mxCell>
        <mxCell id="uTiXBYOYS6c3BIyxJnIv-90" style="edgeStyle=orthogonalEdgeStyle;rounded=0;orthogonalLoop=1;jettySize=auto;html=1;entryX=0.75;entryY=0;entryDx=0;entryDy=0;fontStyle=1" parent="1" source="uTiXBYOYS6c3BIyxJnIv-75" target="uTiXBYOYS6c3BIyxJnIv-78" edge="1">
          <mxGeometry relative="1" as="geometry" />
        </mxCell>
      </root>
    </mxGraphModel>
  </diagram>
</mxfile>
